<?xml version="1.0" encoding="iso-8859-1"?>
<!-- Generator: Adobe Illustrator 19.0.0, SVG Export Plug-In . SVG Version: 6.00 Build 0)  -->
<svg version="1.1" id="Layer_1" xmlns="http://www.w3.org/2000/svg" xmlns:xlink="http://www.w3.org/1999/xlink" x="0px" y="0px"
	 viewBox="0 0 512.001 512.001" style="enable-background:new 0 0 512.001 512.001;" xml:space="preserve">
<circle style="fill:#F7B239;" cx="256.005" cy="256.004" r="246.855"/>
<path style="fill:#E09B2D;" d="M126.308,385.694c-88.802-88.802-95.799-228.426-20.999-325.241
	c-8.286,6.401-16.258,13.399-23.858,20.999c-96.401,96.401-96.401,252.698,0,349.099s252.698,96.401,349.099,0
	c7.599-7.599,14.597-15.573,20.999-23.858C354.735,481.492,215.109,474.495,126.308,385.694z"/>
<path style="fill:#FFFFFF;" d="M472.353,265.15c-5.053,0-9.15-4.097-9.15-9.15c0-49.977-18.117-98.28-51.012-136.006
	c-32.582-37.366-77.333-61.873-126.01-69.005c-4.999-0.733-8.459-5.38-7.726-10.379s5.384-8.454,10.379-7.726
	c52.993,7.765,101.7,34.43,137.149,75.085c35.802,41.061,55.519,93.632,55.519,148.032
	C481.502,261.054,477.406,265.15,472.353,265.15z"/>
<path style="fill:#E09B2D;" d="M277.825,369.891c-2.06,0-4.132-0.692-5.841-2.111c-10.904-9.054-21.06-9.056-31.966,0
	c-3.888,3.227-9.656,2.694-12.885-1.194c-3.228-3.888-2.694-9.656,1.194-12.885c17.588-14.605,37.761-14.604,55.347,0
	c3.888,3.228,4.422,8.997,1.194,12.885C283.059,368.766,280.451,369.891,277.825,369.891z"/>
<circle style="fill:#FFFFFF;" cx="256.005" cy="39.648" r="9.15"/>
<g>
	<path style="fill:#333333;" d="M256,0C114.842,0,0.001,114.841,0.001,256.001S114.842,512.001,256,512.001
		c141.159,0,256.001-114.841,256.001-256.001S397.159,0,256,0z M256,493.701c-131.068,0-237.7-106.631-237.7-237.7
		S124.932,18.299,256,18.299c131.069,0,237.702,106.632,237.702,237.702S387.069,493.701,256,493.701z"/>
	<path style="fill:#333333;" d="M112.923,204.662c8.265-13.834,22.821-22.094,38.937-22.094s30.672,8.26,38.937,22.094
		c1.713,2.868,4.749,4.458,7.864,4.458c1.597,0,3.213-0.418,4.683-1.297c4.338-2.592,5.753-8.209,3.162-12.547
		c-11.6-19.417-32.028-31.007-54.646-31.007s-43.046,11.592-54.646,31.007c-2.592,4.338-1.176,9.956,3.162,12.547
		C104.717,210.416,110.332,209,112.923,204.662z"/>
	<path style="fill:#333333;" d="M360.143,164.268c-22.618,0-43.046,11.592-54.646,31.007c-2.592,4.338-1.176,9.956,3.162,12.547
		c4.341,2.592,9.957,1.176,12.547-3.162c8.265-13.834,22.821-22.094,38.937-22.094s30.672,8.26,38.937,22.094
		c1.713,2.868,4.749,4.458,7.864,4.458c1.597,0,3.213-0.418,4.683-1.297c4.338-2.592,5.753-8.209,3.162-12.547
		C403.188,175.86,382.759,164.268,360.143,164.268z"/>
	<path style="fill:#333333;" d="M190.337,263.692c0-18.666-15.186-33.852-33.852-33.852h-43.396c-5.053,0-9.15,4.097-9.15,9.15
		c0,5.053,4.097,9.15,9.15,9.15h13.342c-2.422,4.661-3.8,9.947-3.8,15.553c0,18.666,15.186,33.852,33.852,33.852
		S190.337,282.359,190.337,263.692z"/>
	<path style="fill:#333333;" d="M375.036,229.84h-43.394c-5.053,0-9.15,4.097-9.15,9.15c0,5.053,4.097,9.15,9.15,9.15h13.342
		c-2.422,4.661-3.8,9.947-3.8,15.553c0,18.666,15.186,33.852,33.852,33.852s33.852-15.186,33.852-33.852
		C408.888,245.026,393.702,229.84,375.036,229.84z"/>
	<path style="fill:#333333;" d="M256.001,305.642c-31.507,0-59.964,16.147-76.123,43.194c-2.592,4.338-1.176,9.956,3.162,12.547
		c4.339,2.591,9.956,1.176,12.547-3.162c12.825-21.466,35.409-34.282,60.414-34.282s47.589,12.815,60.414,34.282
		c1.714,2.868,4.749,4.459,7.864,4.458c1.596,0,3.213-0.418,4.683-1.297c4.338-2.592,5.753-8.209,3.162-12.547
		C315.965,321.789,287.507,305.642,256.001,305.642z"/>
</g>
<g>
	<circle style="fill:#FFFFFF;" cx="163.692" cy="257.139" r="9.15"/>
	<circle style="fill:#FFFFFF;" cx="382.061" cy="257.139" r="9.15"/>
</g>
<g>
</g>
<g>
</g>
<g>
</g>
<g>
</g>
<g>
</g>
<g>
</g>
<g>
</g>
<g>
</g>
<g>
</g>
<g>
</g>
<g>
</g>
<g>
</g>
<g>
</g>
<g>
</g>
<g>
</g>
</svg>
