<?xml version="1.0" encoding="iso-8859-1"?>
<!-- Generator: Adobe Illustrator 19.0.0, SVG Export Plug-In . SVG Version: 6.00 Build 0)  -->
<svg version="1.1" id="Layer_1" xmlns="http://www.w3.org/2000/svg" xmlns:xlink="http://www.w3.org/1999/xlink" x="0px" y="0px"
	 viewBox="0 0 512.001 512.001" style="enable-background:new 0 0 512.001 512.001;" xml:space="preserve">
<circle style="fill:#F7B239;" cx="256.004" cy="256.004" r="246.855"/>
<path style="fill:#E09B2D;" d="M126.306,385.694c-88.801-88.802-95.798-228.426-20.998-325.241
	c-8.286,6.401-16.258,13.399-23.858,20.999c-96.401,96.401-96.401,252.698,0,349.099s252.698,96.401,349.099,0
	c7.599-7.599,14.597-15.573,20.999-23.858C354.733,481.492,215.108,474.495,126.306,385.694z"/>
<path style="fill:#FFFFFF;" d="M472.352,265.15c-5.054,0-9.15-4.097-9.15-9.15c0-49.977-18.117-98.278-51.012-136.006
	c-32.582-37.366-77.334-61.873-126.01-69.005c-5.001-0.733-8.46-5.38-7.727-10.379c0.734-5.001,5.395-8.454,10.379-7.726
	c52.993,7.765,101.701,34.43,137.15,75.085c35.803,41.061,55.519,93.632,55.519,148.032
	C481.502,261.054,477.406,265.15,472.352,265.15z"/>
<path style="fill:#E09B2D;" d="M286.387,365.806c-1.086,0-2.189-0.194-3.262-0.604c-17.746-6.777-36.507-6.776-54.248,0
	c-4.716,1.801-10.007-0.562-11.811-5.285c-1.803-4.721,0.564-10.008,5.285-11.811c22.013-8.404,45.285-8.405,67.3,0
	c4.721,1.803,7.088,7.09,5.285,11.811C293.543,363.565,290.07,365.806,286.387,365.806z"/>
<circle style="fill:#FFFFFF;" cx="256.004" cy="39.648" r="9.15"/>
<g>
	<path style="fill:#333333;" d="M256.001,0C114.841,0,0,114.841,0,256.001s114.841,256.001,256.001,256.001
		S512.001,397.16,512.001,256.001S397.16,0,256.001,0z M256.001,493.701c-131.069,0-237.702-106.631-237.702-237.7
		S124.932,18.299,256.001,18.299s237.702,106.632,237.702,237.702S387.068,493.701,256.001,493.701z"/>
	<path style="fill:#333333;" d="M364.035,333.645c-31.957-21.497-69.314-32.859-108.033-32.859s-76.074,11.363-108.033,32.859
		c-4.194,2.82-5.307,8.505-2.486,12.698c2.822,4.193,8.504,5.306,12.698,2.485c28.928-19.458,62.754-29.743,97.821-29.743
		s68.892,10.285,97.821,29.743c1.566,1.054,3.341,1.559,5.098,1.559c2.944,0,5.834-1.419,7.6-4.044
		C369.342,342.15,368.229,336.465,364.035,333.645z"/>
	<path style="fill:#333333;" d="M180.577,205.119c0-18.666-15.186-33.852-33.852-33.852s-33.852,15.186-33.852,33.852
		s15.186,33.852,33.852,33.852S180.577,223.784,180.577,205.119z"/>
	<path style="fill:#333333;" d="M365.275,171.267c-18.666,0-33.852,15.186-33.852,33.852s15.186,33.852,33.852,33.852
		s33.852-15.186,33.852-33.852S383.942,171.267,365.275,171.267z"/>
</g>
<g>
	<circle style="fill:#FFFFFF;" cx="158.007" cy="197.777" r="9.15"/>
	<circle style="fill:#FFFFFF;" cx="376.376" cy="197.777" r="9.15"/>
</g>
<g>
</g>
<g>
</g>
<g>
</g>
<g>
</g>
<g>
</g>
<g>
</g>
<g>
</g>
<g>
</g>
<g>
</g>
<g>
</g>
<g>
</g>
<g>
</g>
<g>
</g>
<g>
</g>
<g>
</g>
</svg>
