<?xml version="1.0" encoding="iso-8859-1"?>
<!-- Generator: Adobe Illustrator 19.0.0, SVG Export Plug-In . SVG Version: 6.00 Build 0)  -->
<svg version="1.1" id="Layer_1" xmlns="http://www.w3.org/2000/svg" xmlns:xlink="http://www.w3.org/1999/xlink" x="0px" y="0px"
	 viewBox="0 0 512.001 512.001" style="enable-background:new 0 0 512.001 512.001;" xml:space="preserve">
<circle style="fill:#F7B239;" cx="256.004" cy="256.004" r="246.855"/>
<path style="fill:#E09B2D;" d="M126.306,385.694c-88.801-88.802-95.798-228.426-20.998-325.242
	C97.023,66.853,89.051,73.85,81.45,81.45c-96.401,96.401-96.401,252.698,0,349.099s252.698,96.401,349.099,0
	c7.599-7.599,14.597-15.573,20.999-23.858C354.733,481.492,215.108,474.494,126.306,385.694z"/>
<path style="fill:#FFFFFF;" d="M472.352,265.15c-5.054,0-9.15-4.097-9.15-9.15c0-49.977-18.117-98.278-51.012-136.006
	c-32.582-37.367-77.334-61.873-126.01-69.005c-5.001-0.732-8.46-5.38-7.727-10.379c0.734-5.001,5.395-8.459,10.379-7.727
	c52.993,7.765,101.7,34.43,137.15,75.085c35.803,41.06,55.519,93.632,55.519,148.032C481.502,261.054,477.406,265.15,472.352,265.15
	z"/>
<path style="fill:#E09B2D;" d="M287.082,363.982c-1.431,0-2.882-0.337-4.237-1.046c-8.209-4.298-17.494-6.571-26.85-6.571
	c-9.352,0-18.633,2.272-26.841,6.569c-4.474,2.345-10.005,0.616-12.351-3.861c-2.344-4.476-0.615-10.006,3.861-12.349
	c10.817-5.664,23.034-8.658,35.331-8.658c12.299,0,24.52,2.994,35.337,8.658c4.477,2.343,6.206,7.874,3.862,12.349
	C293.561,362.198,290.377,363.982,287.082,363.982z"/>
<circle style="fill:#FFFFFF;" cx="256.004" cy="39.648" r="9.15"/>
<g>
	<path style="fill:#333333;" d="M256.001,0C114.841,0,0,114.841,0,256.001s114.841,256.001,256.001,256.001
		S512.001,397.16,512.001,256.001C512,114.841,397.16,0,256.001,0z M256.001,493.701c-131.069,0-237.702-106.631-237.702-237.7
		S124.932,18.299,256.001,18.299s237.702,106.632,237.702,237.7C493.701,387.07,387.068,493.701,256.001,493.701z"/>
	<path style="fill:#333333;" d="M257.142,300.395c-37.723,0-73.189,14.69-99.863,41.364c-3.573,3.573-3.573,9.365,0,12.939
		c3.574,3.573,9.367,3.573,12.94,0c23.217-23.218,54.087-36.005,86.923-36.005s63.706,12.787,86.923,36.005
		c1.787,1.787,4.128,2.68,6.471,2.68c2.341,0,4.683-0.893,6.471-2.68c3.573-3.573,3.573-9.365,0-12.939
		C330.332,315.086,294.865,300.395,257.142,300.395z"/>
	<path style="fill:#333333;" d="M161.852,136.57c0-5.053-4.095-9.15-9.15-9.15s-9.15,4.097-9.15,9.15
		c0,26.857-21.849,48.707-48.707,48.707c-5.054,0-9.15,4.097-9.15,9.15s4.095,9.15,9.15,9.15
		C131.792,203.575,161.852,173.517,161.852,136.57z"/>
	<path style="fill:#333333;" d="M417.155,185.276c-26.858,0-48.707-21.849-48.707-48.707c0-5.053-4.095-9.15-9.15-9.15
		c-5.054,0-9.15,4.097-9.15,9.15c0,36.947,30.059,67.006,67.006,67.006c5.054,0,9.15-4.097,9.15-9.15
		C426.304,189.372,422.209,185.276,417.155,185.276z"/>
	<path style="fill:#333333;" d="M180.577,229.983c0-18.666-15.186-33.852-33.852-33.852s-33.852,15.186-33.852,33.852
		s15.186,33.852,33.852,33.852S180.577,248.649,180.577,229.983z"/>
	<path style="fill:#333333;" d="M365.275,196.131c-18.666,0-33.852,15.186-33.852,33.852s15.186,33.852,33.852,33.852
		s33.852-15.186,33.852-33.852S383.942,196.131,365.275,196.131z"/>
</g>
<g>
	<circle style="fill:#FFFFFF;" cx="150.48" cy="225.372" r="9.15"/>
	<circle style="fill:#FFFFFF;" cx="368.849" cy="225.372" r="9.15"/>
</g>
<g>
</g>
<g>
</g>
<g>
</g>
<g>
</g>
<g>
</g>
<g>
</g>
<g>
</g>
<g>
</g>
<g>
</g>
<g>
</g>
<g>
</g>
<g>
</g>
<g>
</g>
<g>
</g>
<g>
</g>
</svg>
