<?xml version="1.0" encoding="iso-8859-1"?>
<!-- Generator: Adobe Illustrator 19.0.0, SVG Export Plug-In . SVG Version: 6.00 Build 0)  -->
<svg version="1.1" id="Layer_1" xmlns="http://www.w3.org/2000/svg" xmlns:xlink="http://www.w3.org/1999/xlink" x="0px" y="0px"
	 viewBox="0 0 512 512" style="enable-background:new 0 0 512 512;" xml:space="preserve">
<circle style="fill:#F7B239;" cx="256.004" cy="256.004" r="246.855"/>
<path style="fill:#E09B2D;" d="M126.308,385.694c-88.802-88.802-95.799-228.426-20.999-325.242
	C97.023,66.853,89.051,73.85,81.45,81.45c-96.401,96.401-96.401,252.698,0,349.099s252.698,96.401,349.099,0
	c7.599-7.599,14.597-15.573,20.999-23.858C354.733,481.492,215.108,474.494,126.308,385.694z"/>
<g>
	<path style="fill:#333333;" d="M256.001,512C114.841,512,0,397.159,0,256.001C0,114.841,114.841,0,256.001,0
		C397.159,0,512,114.841,512,256.001C512,397.159,397.159,512,256.001,512z M256.001,18.299
		c-131.069,0-237.702,106.632-237.702,237.702s106.632,237.7,237.702,237.7c131.068,0,237.7-106.632,237.7-237.7
		C493.701,124.932,387.068,18.299,256.001,18.299z"/>
	<path style="fill:#333333;" d="M255.999,314.45c-41.508,0-83.017-15.801-114.617-47.401c-3.573-3.573-3.573-9.365,0-12.939
		c3.573-3.573,9.367-3.573,12.939,0c56.066,56.066,147.291,56.065,203.357,0c3.573-3.573,9.367-3.573,12.939,0
		c3.573,3.573,3.573,9.365,0,12.939C339.017,298.65,297.509,314.45,255.999,314.45z"/>
</g>
<path style="fill:#E09B2D;" d="M256.004,354.126c-14.753,0-29.507-2.01-43.849-6.031c-4.866-1.364-7.704-6.414-6.34-11.28
	c1.364-4.865,6.419-7.704,11.28-6.34c25.455,7.137,52.366,7.137,77.821,0c4.866-1.366,9.916,1.475,11.28,6.34
	c1.364,4.865-1.474,9.916-6.34,11.28C285.511,352.116,270.757,354.126,256.004,354.126z"/>
<g>
	<path style="fill:#333333;" d="M193.133,202.651c-5.053,0-9.15-4.097-9.15-9.15c0-24.556-19.978-44.535-44.535-44.535
		s-44.535,19.978-44.535,44.535c0,5.053-4.097,9.15-9.15,9.15s-9.15-4.097-9.15-9.15c0-34.646,28.187-62.834,62.834-62.834
		s62.834,28.187,62.834,62.834C202.283,198.555,198.186,202.651,193.133,202.651z"/>
	<path style="fill:#333333;" d="M426.236,202.651c-5.053,0-9.15-4.097-9.15-9.15c0-24.556-19.978-44.535-44.535-44.535
		c-24.557,0-44.535,19.978-44.535,44.535c0,5.053-4.097,9.15-9.15,9.15s-9.15-4.097-9.15-9.15c0-34.646,28.187-62.834,62.834-62.834
		s62.834,28.187,62.834,62.834C435.385,198.555,431.289,202.651,426.236,202.651z"/>
</g>
<g>
	<circle style="fill:#F95428;" cx="100.572" cy="243.768" r="24.119"/>
	<circle style="fill:#F95428;" cx="411.425" cy="243.768" r="24.119"/>
</g>
<g>
	<path style="fill:#FFFFFF;" d="M425.982,107.968c-35.448-40.654-84.155-67.32-137.149-75.085
		c-5.001-0.731-9.647,2.727-10.379,7.726c-0.733,4.999,2.727,9.647,7.726,10.379c48.677,7.132,93.428,31.639,126.01,69.006
		c32.896,37.728,51.012,86.029,51.012,136.006c0,5.053,4.097,9.15,9.15,9.15s9.15-4.097,9.15-9.15
		C481.502,201.6,461.784,149.028,425.982,107.968z"/>
	<circle style="fill:#FFFFFF;" cx="256.004" cy="39.648" r="9.15"/>
</g>
<g>
</g>
<g>
</g>
<g>
</g>
<g>
</g>
<g>
</g>
<g>
</g>
<g>
</g>
<g>
</g>
<g>
</g>
<g>
</g>
<g>
</g>
<g>
</g>
<g>
</g>
<g>
</g>
<g>
</g>
</svg>
