<?xml version="1.0" encoding="utf-8"?>
<!-- Generator: Adobe Illustrator 15.0.0, SVG Export Plug-In . SVG Version: 6.00 Build 0)  -->
<!DOCTYPE svg PUBLIC "-//W3C//DTD SVG 1.1//EN" "http://www.w3.org/Graphics/SVG/1.1/DTD/svg11.dtd">
<svg version="1.1" id="Layer_1" xmlns="http://www.w3.org/2000/svg" xmlns:xlink="http://www.w3.org/1999/xlink" x="0px" y="0px"
	 width="64px" height="64px" viewBox="0 0 64 64" enable-background="new 0 0 64 64" xml:space="preserve">
<circle fill="#FDCA47" cx="32" cy="32" r="30"/>
<path fill="#F9B700" d="M51.654,9.346C56.226,14.611,59,21.48,59,29c0,16.568-13.432,30-30,30c-7.521,0-14.39-2.773-19.654-7.346
	C14.846,57.99,22.952,62,32,62c16.568,0,30-13.432,30-30C62,22.953,57.988,14.848,51.654,9.346z"/>
<path fill-rule="evenodd" clip-rule="evenodd" fill="#FFE8BB" d="M6.418,20.5C5.302,24.242,13,11,25,6.084
	C30.834,3.693,11.168,4.584,6.418,20.5z"/>
<path fill="#302C3B" d="M44.584,41.279c-8.109,5.656-17.105,5.623-25.168,0c-0.971-0.678-1.846,0.494-1.188,1.578
	c2.457,4.047,7.417,7.649,13.771,7.649c6.354,0,11.314-3.604,13.771-7.649C46.43,41.773,45.555,40.604,44.584,41.279z"/>
<path fill="#917524" d="M51.203,17.917c-3.234-2.732-7.523-3.881-11.691-3.133c-0.58,0.113-1.09-2.021-0.387-2.156
	c4.811-0.863,9.758,0.461,13.492,3.615C53.158,16.712,51.648,18.304,51.203,17.917z"/>
<path fill="#917524" d="M24.488,14.634c-4.168-0.748-8.455,0.4-11.693,3.133c-0.443,0.389-1.952-1.205-1.412-1.674
	c3.734-3.152,8.682-4.479,13.492-3.615C25.578,12.612,25.066,14.747,24.488,14.634z"/>
<path fill="#302C3B" d="M28.086,28.057c-4.213-7.953-12.695-7.951-16.91,0c-0.208,0.4,0.34,0.58,1.01,1.035
	c4.225-3.32,11.059-3.014,14.891-0.002C27.746,28.637,28.293,28.457,28.086,28.057z"/>
<path fill="#302C3B" d="M52.824,28.057c-4.215-7.953-12.697-7.951-16.912,0c-0.207,0.4,0.34,0.58,1.01,1.035
	c4.225-3.32,11.06-3.014,14.892-0.002C52.483,28.637,53.031,28.457,52.824,28.057z"/>
<circle fill="#F18D84" cx="51.811" cy="36" r="6"/>
<circle fill="#F18D84" cx="12.189" cy="36" r="6"/>
</svg>
